<svg xmlns="http://www.w3.org/2000/svg" viewBox="0 0 421.96 592.83"><title>nbr-bdmap-bw</title><g id="Layer_2" data-name="Layer 2"><g id="Layer_1-2" data-name="Layer 1"><path d="M264.8,455.09c-6.09-.15-7.2-3.13-4.66-8.2,1.61-3.23,3.74-6.34,4.64-9.77.78-3,.16-6.29.16-9.46l-3.4-.31c-1,3.21-2.18,6.37-2.87,9.64-2.33,11.14-8.36,19.41-19.07,23.46-3.52,1.33-8.27-.27-11.56,1.32-5.86,2.85-10.6,8.42-16.61,10.46-8.45,2.88-16,14.2-26.52,4.65-2.12-1.92-3.45-4.77-5-7.28-1.76-2.88-3.34-5.86-5-8.75-6.49,3.5-5.25,14.57-13.63,10.43-2.52-1.25-2-8.67-2.87-13.27l2.4-.94-7.15-4.87c1.28,8.68,2.38,16.1,3.64,24.63l-7.21.51-.31-.11c-5.81-8.31-3.68-16.38,1.39-24.34-7.95-4.72-12.65-2.45-14.95,7l-4.85-6.82-1.7,1c.83,2,2.18,3.91,2.35,5.95.24,3.06.71,8.11-.78,8.94-4.58,2.54-3.1,5.12-2.7,8.9.32,3.12-2.33,6.54-3.66,9.83-2.23-1.64-4.7-3-6.62-5s-3-4.23-4.87-7c9.31-4.2,9.4-9,2.21-15.33-2.29-2-2.29-6.64-3.4-10.26-5,1.44-6.08,8.43-3.67,16.86,2.26,7.88,2.81,16.31,3.51,24.54.21,2.48-1.6,5.12-2.49,7.68L105.22,496a42,42,0,0,1-1.23-6.56c-.15-4.75,1-9.6-6.12-11C96,478,94.94,473.2,92,471.07c1.63,3.45,3.69,6.78,4.74,10.4.69,2.41-.08,5.24-.19,7.88-2.15-.81-5-1-6.34-2.52-5.58-6.15-6.44-13-2.23-20.51,1.18-2.11,1-5.11,1-7.71a100.2,100.2,0,0,0-.26-13.09c-.28-2.52-1.59-4.95-2.58-7.37-1.68-4.09-5.11-8.23-4.87-12.17.56-9.16.21-17.53-3.35-26.4-2.07-5.14,1-12.21,1.1-18.43.07-2.74-1.15-5.57-2.1-8.26-2.64-7.48-8.75-14.58-3.26-23,2.35-3.61,5.76-6.52,9.36-10.5-4.85-.52-9.27-1-13.69-1.48-9.88-1.09-12.15-4.86-8.33-13.84,1.41-3.32,2.78-6.66,3.89-9.32-4.61-4-9.09-7.38-13-11.36-9.84-10.09-7.47-24.88,4.9-32a19.67,19.67,0,0,0,2.4-1.29c3.36-2.63,5.76-31.75,2.56-34.42a14.24,14.24,0,0,0-6.59-2.62c-21.87-3.76-39-15.13-52.89-32.11-3.37-4.11-2.9-6.84,0-11.07,4.4-6.53,7.67-13.83,12.32-22.49l10.89,4.28c10.84-6.75,16.38-15.82,12.65-28.89h43.7c1.79-6.22-2.23-10.32-3.82-15.26C74.28,115.77,67.58,115,57.38,114.06c-5.4-.52-10.14-8.21-15.13-12.7-7.73-7-13.19-17.14-26-16.52-7.4.36-7.65-7-6.15-10.47,5-11.7,2.82-27.29,19.14-33.36,6.11-2.28,10.9-9.1,15.31-14.63,3.26-4.08.59-7.55-4.16-8.41-2.19-.39-4.63.65-10.33,1.61L38.09,0,78.46,35.62,96.08,39c-2-6.33-14.82-8.4-7.4-18,12.13,2.14,16.64,5.65,17.7,17,1.63,17.42,21.39,26.5,34.75,26.26,2,0,4.41-4.31,5.58-7.07.82-1.93-1.14-5.26-.12-6.85,1.81-2.81,6.41-7.19,7.28-6.66a34.63,34.63,0,0,1,9.91,9.51c4.08,5.74,6.59,12.78,11.3,17.83,4.44,4.76,4.24,8.32.66,12.53-4.36,5.11-6.26,9.59-3.38,17,1.88,4.82-1.05,11.69-2.3,17.55-2.72,12.83-2.36,13.14,9.85,16.73,10.06,3,19.84,6.87,29.79,10.24,9.24,3.13,18.3,3.52,28.3,2.14,14-1.94,28.16,1.51,42.74-2.86,10.91-3.28,23.42.7,34.9,4.3,2.92.91,6.52-.31,9.81-.63,1.46-.15,3.79-1.21,4.21-.67,5.43,7,11.53,1.7,17.33,1.2,12.39-1.08,24.77-2.34,35.72,5.75,7.54,5.57,19.17,4.6,23.85,14.68,1.54,3.32,2.42,6.94,3.61,10.42-4.22.69-8.41,1.72-12.65,1.93-2.1.1-4.27-1.33-5.48-1.75-.74,7.41-1.11,14.12-2.15,20.73s1.8,15.31-9,16.61c-.9,8.34-4.21,13.94-13.74,11.74-3.48,7.55-6.62,14.73-10.27,21.65-.34.62-4.45.16-5.95-1-2.44-1.8-4.17-4.56-6.2-6.92-.75.46-1.5.92-2.24,1.39.11,2.49.23,5,.38,8.12l-9-2.4c-6.2,9.74-6.2,9.74-19.66,7.38-5.83,4.71-10.36,8.27-14.75,12A9.38,9.38,0,0,0,297,272.6c-2.75,7.11-6.22,14.11-7.67,21.49-.93,4.72.78,10.14,2,15.06,2.71,10.47,5.93,20.8,8.86,31.21,1.18,4.2,2.15,8.46,5,12.34-.26-3.39-1-6.85-.6-10.14.26-1.94,2.21-4.7,3.86-5.08s4.63,1.59,5.32,3.24c2.09,5,3.12,10.38,5,15.47s2.72,11.37,10.45,9.94c6.73-1.23,14.78-11.12,12.36-16.32-6.8-14.7,1.44-23.05,11.35-31.39,1.62-1.36,2.33-4.41,2.5-6.75.28-3.9-.62-7.88-.31-11.78.45-5.67,2.35-9.51,8.37-3.95,7.75,7.17,7.92-4,11.21-4.79l13,2.28c3.14,11.73,7.39,24.25,9.65,37.12,1.69,9.59-.19,19.78,1.35,29.42s5.67,18.6,8,28c2.52,10,4.44,20.16,6.38,30.29.84,4.43.55,9.12,1.73,13.42,1.9,6.93,5.48,13.6.32,20.6A3.09,3.09,0,0,0,415,455c7.82,15.81-.75,32.32,2.11,48.33,1.27,7.12,1.43,14.6,3.81,21.32,2.56,7.22.52,10.12-6.76,11.46-3.71-5-5.49-13.35-15.12-9.68-.83.31-3.72-4.79-5.69-7.42-13,2.56-19,16.59-13.14,29.15,5.32,11.39,9.6,23.28,14.05,35.06.76,2,.11,4.59.11,9.63-3.62-3.85-5.95-5.81-7.6-8.23-2.7-4-6.07-7.94-7.19-12.41-3.71-14.83-18.76-24.1-18.58-41.34.07-6.44-7.26-13-11.81-20.41-1.13-5-3.2-11.65-4-18.44-.76-6.43-2-13.72.18-19.39,3.56-9.21,3.33-17-1.13-25.58a55.37,55.37,0,0,1-5.37-15.38c-3-16.27-13.3-28.09-24.22-42.36-4.85,5.38-8.48,10.64-13.31,14.33-3.58,2.73-8.62,4.1-13.21,4.83-5,.81-10.22.19-16,.19-2.94,15.76,4.12,32.83-7.51,46.61Zm-16.33,14.42A71.62,71.62,0,0,1,247.06,480c-.14.53-3.69.16-5.66.2l2.79-11.29Zm-19.21-20.15c-8,7-17,7.53-26.73,6.4-1.78-.2-3.89,2.37-5.85,3.66,1.93,1.29,4.18,4,5.74,3.65C212.44,460.78,223.19,459.61,229.26,449.36Zm80.29-50c6.73,2.6,15,19.58,11.89,25.2-2.13,3.81-5.3,5.82-9.28,1.36C305.48,418.46,304.49,409.45,309.55,399.37Z"/></g></g></svg>